REM DIRINDEX 1\4,1\2\5,1\2\6,1\3\7,1\3\8
REM DIRNAME folder01,folder02,folder03,folder04,folder05,folder06,folder07,folder08
TITLE ""
FILE "111_Day56_Check2_Phrases.mp3" MP3
  TRACK 01 AUDIO
    TITLE "0:"
    INDEX 01 00:00:00
  TRACK 02 AUDIO
    TITLE "4:cjc124_3633"
    INDEX 01 00:00:33
  TRACK 03 AUDIO
    TITLE "0:"
    INDEX 01 00:01:58
  TRACK 04 AUDIO
    TITLE "5:cjc124_3634"
    INDEX 01 00:02:18
  TRACK 05 AUDIO
    TITLE "0:"
    INDEX 01 00:04:05
  TRACK 06 AUDIO
    TITLE "5:cjc124_3635"
    INDEX 01 00:04:19
  TRACK 07 AUDIO
    TITLE "0:"
    INDEX 01 00:05:40
  TRACK 08 AUDIO
    TITLE "6:cjc124_3636"
    INDEX 01 00:06:04
  TRACK 09 AUDIO
    TITLE "0:"
    INDEX 01 00:08:17
  TRACK 10 AUDIO
    TITLE "6:cjc124_3637"
    INDEX 01 00:08:34
  TRACK 11 AUDIO
    TITLE "0:"
    INDEX 01 00:10:10
  TRACK 12 AUDIO
    TITLE "5:cjc124_3638"
    INDEX 01 00:10:53
  TRACK 13 AUDIO
    TITLE "0:"
    INDEX 01 00:12:40
  TRACK 14 AUDIO
    TITLE "5:cjc124_3639"
    INDEX 01 00:12:56
  TRACK 15 AUDIO
    TITLE "0:"
    INDEX 01 00:14:19
  TRACK 16 AUDIO
    TITLE "6:cjc124_3640"
    INDEX 01 00:14:58
  TRACK 17 AUDIO
    TITLE "0:"
    INDEX 01 00:16:34
  TRACK 18 AUDIO
    TITLE "6:cjc124_3641"
    INDEX 01 00:16:55
  TRACK 19 AUDIO
    TITLE "0:"
    INDEX 01 00:18:11
  TRACK 20 AUDIO
    TITLE "5:cjc124_3642"
    INDEX 01 00:18:54
  TRACK 21 AUDIO
    TITLE "0:"
    INDEX 01 00:20:10
  TRACK 22 AUDIO
    TITLE "5:cjc124_3643"
    INDEX 01 00:20:32
  TRACK 23 AUDIO
    TITLE "0:"
    INDEX 01 00:21:37
  TRACK 24 AUDIO
    TITLE "6:cjc124_3644"
    INDEX 01 00:22:05
  TRACK 25 AUDIO
    TITLE "0:"
    INDEX 01 00:24:16
  TRACK 26 AUDIO
    TITLE "6:cjc124_3645"
    INDEX 01 00:24:33
  TRACK 27 AUDIO
    TITLE "0:"
    INDEX 01 00:26:01
  TRACK 28 AUDIO
    TITLE "5:cjc124_3646"
    INDEX 01 00:26:42
  TRACK 29 AUDIO
    TITLE "0:"
    INDEX 01 00:28:19
  TRACK 30 AUDIO
    TITLE "5:cjc124_3647"
    INDEX 01 00:28:35
  TRACK 31 AUDIO
    TITLE "0:"
    INDEX 01 00:29:64
  TRACK 32 AUDIO
    TITLE "6:cjc124_3648"
    INDEX 01 00:30:30
  TRACK 33 AUDIO
    TITLE "0:"
    INDEX 01 00:32:50
  TRACK 34 AUDIO
    TITLE "6:cjc124_3649"
    INDEX 01 00:32:70
  TRACK 35 AUDIO
    TITLE "0:"
    INDEX 01 00:34:61
  TRACK 36 AUDIO
    TITLE "5:cjc124_3650"
    INDEX 01 00:35:23
  TRACK 37 AUDIO
    TITLE "0:"
    INDEX 01 00:37:05
  TRACK 38 AUDIO
    TITLE "5:cjc124_3651"
    INDEX 01 00:37:20
  TRACK 39 AUDIO
    TITLE "0:"
    INDEX 01 00:38:65
  TRACK 40 AUDIO
    TITLE "6:cjc124_3652"
    INDEX 01 00:39:29
  TRACK 41 AUDIO
    TITLE "0:"
    INDEX 01 00:41:08
  TRACK 42 AUDIO
    TITLE "6:cjc124_3653"
    INDEX 01 00:41:32
  TRACK 43 AUDIO
    TITLE "0:"
    INDEX 01 00:42:65
  TRACK 44 AUDIO
    TITLE "5:cjc124_3654"
    INDEX 01 00:43:25
  TRACK 45 AUDIO
    TITLE "0:"
    INDEX 01 00:45:53
  TRACK 46 AUDIO
    TITLE "5:cjc124_3655"
    INDEX 01 00:45:69
  TRACK 47 AUDIO
    TITLE "0:"
    INDEX 01 00:47:25
  TRACK 48 AUDIO
    TITLE "6:cjc124_3656"
    INDEX 01 00:47:64
  TRACK 49 AUDIO
    TITLE "0:"
    INDEX 01 00:49:29
  TRACK 50 AUDIO
    TITLE "6:cjc124_3657"
    INDEX 01 00:49:45
  TRACK 51 AUDIO
    TITLE "0:"
    INDEX 01 00:51:32
  TRACK 52 AUDIO
    TITLE "5:cjc124_3658"
    INDEX 01 00:51:69
  TRACK 53 AUDIO
    TITLE "0:"
    INDEX 01 00:54:01
  TRACK 54 AUDIO
    TITLE "5:cjc124_3659"
    INDEX 01 00:54:17
  TRACK 55 AUDIO
    TITLE "0:"
    INDEX 01 00:55:55
  TRACK 56 AUDIO
    TITLE "6:cjc124_3660"
    INDEX 01 00:56:20
  TRACK 57 AUDIO
    TITLE "0:"
    INDEX 01 00:58:22
  TRACK 58 AUDIO
    TITLE "6:cjc124_3661"
    INDEX 01 00:58:38
  TRACK 59 AUDIO
    TITLE "0:"
    INDEX 01 01:00:53
  TRACK 60 AUDIO
    TITLE "5:cjc124_3662"
    INDEX 01 01:01:15
  TRACK 61 AUDIO
    TITLE "0:"
    INDEX 01 01:02:73
  TRACK 62 AUDIO
    TITLE "5:cjc124_3663"
    INDEX 01 01:03:20
  TRACK 63 AUDIO
    TITLE "0:"
    INDEX 01 01:04:52
  TRACK 64 AUDIO
    TITLE "6:cjc124_3664"
    INDEX 01 01:05:22
  TRACK 65 AUDIO
    TITLE "0:"
    INDEX 01 01:06:67
  TRACK 66 AUDIO
    TITLE "6:cjc124_3665"
    INDEX 01 01:07:23
  TRACK 67 AUDIO
    TITLE "0:"
    INDEX 01 01:08:56
  TRACK 68 AUDIO
    TITLE "5:cjc124_3666"
    INDEX 01 01:09:24
  TRACK 69 AUDIO
    TITLE "0:"
    INDEX 01 01:10:53
  TRACK 70 AUDIO
    TITLE "5:cjc124_3667"
    INDEX 01 01:10:69
  TRACK 71 AUDIO
    TITLE "0:"
    INDEX 01 01:13:04
  TRACK 72 AUDIO
    TITLE "6:cjc124_3668"
    INDEX 01 01:13:44
  TRACK 73 AUDIO
    TITLE "0:"
    INDEX 01 01:15:46
  TRACK 74 AUDIO
    TITLE "6:cjc124_3669"
    INDEX 01 01:15:60
  TRACK 75 AUDIO
    TITLE "0:"
    INDEX 01 01:17:16
  TRACK 76 AUDIO
    TITLE "5:cjc124_3670"
    INDEX 01 01:17:57
  TRACK 77 AUDIO
    TITLE "0:"
    INDEX 01 01:19:44
  TRACK 78 AUDIO
    TITLE "5:cjc124_3671"
    INDEX 01 01:19:58
  TRACK 79 AUDIO
    TITLE "0:"
    INDEX 01 01:21:21
  TRACK 80 AUDIO
    TITLE "6:cjc124_3672"
    INDEX 01 01:21:65
  TRACK 81 AUDIO
    TITLE "0:"
    INDEX 01 01:24:73
  TRACK 82 AUDIO
    TITLE "6:cjc124_3673"
    INDEX 01 01:25:15
  TRACK 83 AUDIO
    TITLE "0:"
    INDEX 01 01:27:14
  TRACK 84 AUDIO
    TITLE "5:cjc124_3674"
    INDEX 01 01:27:55
  TRACK 85 AUDIO
    TITLE "0:"
    INDEX 01 01:29:31
  TRACK 86 AUDIO
    TITLE "5:cjc124_3675"
    INDEX 01 01:29:48
  TRACK 87 AUDIO
    TITLE "0:"
    INDEX 01 01:31:47
  TRACK 88 AUDIO
    TITLE "6:cjc124_3676"
    INDEX 01 01:32:10
  TRACK 89 AUDIO
    TITLE "0:"
    INDEX 01 01:34:01
  TRACK 90 AUDIO
    TITLE "6:cjc124_3677"
    INDEX 01 01:34:14
  TRACK 91 AUDIO
    TITLE "0:"
    INDEX 01 01:36:13
  TRACK 92 AUDIO
    TITLE "5:cjc124_3678"
    INDEX 01 01:36:50
  TRACK 93 AUDIO
    TITLE "0:"
    INDEX 01 01:38:43
  TRACK 94 AUDIO
    TITLE "5:cjc124_3679"
    INDEX 01 01:38:59
  TRACK 95 AUDIO
    TITLE "0:"
    INDEX 01 01:40:17
  TRACK 96 AUDIO
    TITLE "6:cjc124_3680"
    INDEX 01 01:40:54
  TRACK 97 AUDIO
    TITLE "0:"
    INDEX 01 01:42:16
  TRACK 98 AUDIO
    TITLE "6:cjc124_3681"
    INDEX 01 01:42:31
  TRACK 99 AUDIO
    TITLE "0:"
    INDEX 01 01:43:58
  TRACK 100 AUDIO
    TITLE "5:cjc124_3682"
    INDEX 01 01:44:23
  TRACK 101 AUDIO
    TITLE "0:"
    INDEX 01 01:46:25
  TRACK 102 AUDIO
    TITLE "5:cjc124_3683"
    INDEX 01 01:46:41
  TRACK 103 AUDIO
    TITLE "0:"
    INDEX 01 01:48:12
  TRACK 104 AUDIO
    TITLE "6:cjc124_3684"
    INDEX 01 01:48:50
  TRACK 105 AUDIO
    TITLE "0:"
    INDEX 01 01:50:68
  TRACK 106 AUDIO
    TITLE "6:cjc124_3685"
    INDEX 01 01:51:09
  TRACK 107 AUDIO
    TITLE "0:"
    INDEX 01 01:53:25
  TRACK 108 AUDIO
    TITLE "5:cjc124_3686"
    INDEX 01 01:53:61
  TRACK 109 AUDIO
    TITLE "0:"
    INDEX 01 01:55:62
  TRACK 110 AUDIO
    TITLE "5:cjc124_3687"
    INDEX 01 01:56:02
  TRACK 111 AUDIO
    TITLE "0:"
    INDEX 01 01:58:34
  TRACK 112 AUDIO
    TITLE "6:cjc124_3688"
    INDEX 01 01:58:72
  TRACK 113 AUDIO
    TITLE "0:"
    INDEX 01 02:00:61
  TRACK 114 AUDIO
    TITLE "6:cjc124_3689"
    INDEX 01 02:01:01
  TRACK 115 AUDIO
    TITLE "0:"
    INDEX 01 02:02:34
  TRACK 116 AUDIO
    TITLE "5:cjc124_3690"
    INDEX 01 02:02:73
  TRACK 117 AUDIO
    TITLE "0:"
    INDEX 01 02:04:60
  TRACK 118 AUDIO
    TITLE "5:cjc124_3691"
    INDEX 01 02:05:01
  TRACK 119 AUDIO
    TITLE "0:"
    INDEX 01 02:06:61
  TRACK 120 AUDIO
    TITLE "6:cjc124_3692"
    INDEX 01 02:07:26
  TRACK 121 AUDIO
    TITLE "0:"
    INDEX 01 02:09:01
  TRACK 122 AUDIO
    TITLE "6:cjc124_3693"
    INDEX 01 02:09:15
  TRACK 123 AUDIO
    TITLE "0:"
    INDEX 01 02:10:61
  TRACK 124 AUDIO
    TITLE "5:cjc124_3694"
    INDEX 01 02:11:27
  TRACK 125 AUDIO
    TITLE "0:"
    INDEX 01 02:13:09
  TRACK 126 AUDIO
    TITLE "5:cjc124_3695"
    INDEX 01 02:13:38
  TRACK 127 AUDIO
    TITLE "0:"
    INDEX 01 02:14:71
  TRACK 128 AUDIO
    TITLE "6:cjc124_3696"
    INDEX 01 02:15:33
  TRACK 129 AUDIO
    TITLE "0:"
    INDEX 01 02:17:34
  TRACK 130 AUDIO
    TITLE "6:cjc124_3697"
    INDEX 01 02:17:47
  TRACK 131 AUDIO
    TITLE "0:"
    INDEX 01 02:19:31
